# xmcd
#
# Track frame offsets: 
#        150
#        18622
#        37852
#        55187
#        74993
#        93472
#        112672
#        130028
#        161187
#
# Disc length: 2710 seconds
#
# Revision: 2
# Processed by: cddbd v1.5.2PL0 Copyright (c) Steve Scherf et al.
# Submitted via: ExactAudioCopy v1.0b3
#
DISCID=760a9409
DTITLE=Лили Иванова - Танго
DYEAR=2004
DGENRE=Pop
TTITLE0=Танго
TTITLE1=Пак ще те обичам
TTITLE2=Стари мой приятелю
TTITLE3=Обич
TTITLE4=Танго
TTITLE5=Пак ще те обичам (инструментал)
TTITLE6=Стари мой приятелю (инструментал)
TTITLE7=Обич (инструментал)
TTITLE8=data track
EXTD=
EXTT0=
EXTT1=
EXTT2=
EXTT3=
EXTT4=
EXTT5=
EXTT6=
EXTT7=
EXTT8=
PLAYORDER=
